<?xml version="1.0" standalone="no"?>
<!DOCTYPE svg PUBLIC "-//W3C//DTD SVG 20010904//EN"
 "http://www.w3.org/TR/2001/REC-SVG-20010904/DTD/svg10.dtd">
<svg version="1.0" xmlns="http://www.w3.org/2000/svg"
 width="736.000000pt" height="736.000000pt" viewBox="0 0 736.000000 736.000000"
 preserveAspectRatio="xMidYMid meet">
<metadata>
Created by potrace 1.16, written by Peter Selinger 2001-2019
</metadata>
<g transform="translate(0.000000,736.000000) scale(0.100000,-0.100000)"
fill="#000000" stroke="none">
<path d="M2245 4590 l-910 -910 911 -911 911 -911 662 659 c363 363 661 666
661 673 0 7 -297 -286 -661 -650 l-661 -663 -901 901 -902 902 902 902 903
903 658 -658 c361 -361 662 -657 667 -657 5 0 -289 299 -655 665 -366 366
-667 665 -670 665 -3 0 -415 -410 -915 -910z"/>
<path d="M2199 3965 c-40 -22 -59 -72 -59 -155 0 -121 39 -170 135 -170 49 0
100 23 110 49 10 26 -16 29 -40 5 -18 -18 -35 -24 -65 -24 -54 0 -79 14 -96
55 -29 71 -10 190 34 214 35 19 100 13 123 -10 13 -13 27 -18 37 -14 14 5 12
11 -16 36 -27 24 -41 29 -85 29 -28 -1 -64 -7 -78 -15z"/>
<path d="M2771 3955 c-38 -33 -57 -108 -46 -191 6 -47 13 -64 40 -91 29 -29
39 -33 87 -33 93 0 128 46 128 170 0 122 -38 170 -134 170 -33 0 -52 -6 -75
-25z m153 -38 c30 -41 30 -173 0 -214 -36 -48 -122 -44 -149 7 -20 38 -20 161
0 200 18 35 28 39 84 37 35 -2 48 -8 65 -30z"/>
<path d="M3040 3965 c0 -12 12 -15 55 -15 l54 0 3 -152 c2 -108 6 -153 15
-155 9 -3 13 33 15 149 l3 153 58 3 c40 2 57 7 54 15 -2 8 -43 13 -130 15
-109 2 -127 0 -127 -13z"/>
<path d="M3370 3810 c0 -144 2 -170 15 -170 12 0 15 16 15 80 l0 80 80 0 79 0
3 -77 c2 -61 6 -78 18 -78 13 0 15 25 15 165 0 140 -2 165 -15 165 -12 0 -16
-16 -18 -72 l-3 -73 -79 0 -80 0 0 75 c0 60 -3 75 -15 75 -13 0 -15 -26 -15
-170z"/>
<path d="M3687 3974 c-10 -11 2 -24 24 -24 18 0 19 -8 19 -140 l0 -140 -25 0
c-18 0 -23 -4 -19 -15 5 -11 22 -15 65 -15 46 0 59 3 59 15 0 9 -9 15 -25 15
l-25 0 0 140 0 140 26 0 c16 0 24 5 22 13 -5 13 -109 23 -121 11z"/>
<path d="M3890 3978 c0 -2 -1 -77 -2 -168 -1 -135 2 -165 13 -165 11 0 15 30
19 142 l5 142 79 -145 c59 -108 83 -144 97 -144 19 0 19 8 17 167 -2 122 -6
167 -15 171 -10 3 -13 -28 -13 -134 0 -98 -3 -135 -11 -127 -6 6 -41 66 -78
134 -51 91 -74 125 -90 127 -11 2 -21 2 -21 0z"/>
<path d="M4280 3967 c-86 -42 -92 -252 -9 -311 27 -19 110 -21 158 -5 l31 11
0 74 0 74 -60 0 c-47 0 -60 -3 -60 -15 0 -11 12 -15 45 -15 l45 0 0 -49 c0
-56 -6 -61 -80 -61 -42 0 -52 4 -74 31 -17 20 -26 43 -27 67 -4 142 17 181 97
182 27 0 50 -7 67 -20 40 -31 61 -24 34 11 -30 39 -115 52 -167 26z"/>
<path d="M4725 3955 c-18 -17 -25 -35 -25 -63 0 -49 20 -68 100 -92 75 -23 90
-34 90 -70 0 -40 -28 -60 -84 -60 -36 0 -52 5 -71 24 -15 16 -28 20 -37 14
-10 -6 -5 -15 21 -39 32 -29 37 -31 99 -27 77 5 102 27 102 89 0 49 -21 71
-91 94 -74 24 -99 41 -99 69 0 54 91 77 136 35 21 -20 44 -19 44 2 0 20 -66
49 -113 49 -38 0 -53 -5 -72 -25z"/>
<path d="M5020 3811 c0 -145 2 -171 15 -171 12 0 15 16 15 80 l0 80 80 0 79 0
3 -77 c2 -61 6 -78 18 -78 13 0 15 24 13 165 -2 126 -6 165 -15 165 -9 0 -14
-22 -16 -72 l-3 -73 -79 0 -79 0 -3 72 c-2 46 -7 73 -15 76 -10 3 -13 -35 -13
-167z"/>
<path d="M5392 3967 c-40 -23 -55 -56 -60 -131 -9 -139 29 -196 132 -196 93 0
138 81 121 216 -10 81 -44 116 -116 121 -33 2 -63 -2 -77 -10z m127 -34 c29
-24 43 -108 31 -174 -12 -63 -15 -68 -52 -84 -69 -28 -127 16 -136 104 -6 65
4 113 29 145 16 21 29 26 64 26 26 0 51 -7 64 -17z"/>
<path d="M5713 3973 c-10 -4 -13 -47 -13 -170 0 -127 3 -164 13 -161 7 3 13
27 15 61 l3 57 40 0 c67 0 106 22 120 69 15 52 0 112 -33 130 -23 12 -122 21
-145 14z m125 -39 c18 -12 22 -25 22 -64 0 -59 -23 -80 -87 -80 l-43 0 0 80 0
80 43 0 c23 0 53 -7 65 -16z"/>
</g>
</svg>
